HIERARCHY
ROOT hip
{
  OFFSET 0 0 0
  CHANNELS 6 Xposition Yposition Zposition Zrotation Yrotation Xrotation
  JOINT abdomen
  {
    OFFSET 0 20.6881 -0.73152
    CHANNELS 3 Zrotation Xrotation Yrotation
    JOINT chest
    {
      OFFSET 0 11.7043 -0.48768
      CHANNELS 3 Zrotation Xrotation Yrotation
      JOINT neck
      {
        OFFSET 0 22.1894 -2.19456
        CHANNELS 3 Zrotation Xrotation Yrotation
        JOINT head
        {
          OFFSET -0.24384 7.07133 1.2192
          CHANNELS 3 Zrotation Xrotation Yrotation
          JOINT leftEye
          {
            OFFSET 4.14528 8.04674 8.04672
            CHANNELS 3 Zrotation Xrotation Yrotation
            End Site
            {
              OFFSET 1 0 0
            }
          }
          JOINT rightEye
          {
            OFFSET -3.6576 8.04674 8.04672
            CHANNELS 3 Zrotation Xrotation Yrotation
            End Site
            {
              OFFSET 1 0 0
            }
          }
        }
      }
      JOINT rCollar
      {
        OFFSET -2.68224 19.2634 -4.8768
        CHANNELS 3 Zrotation Xrotation Yrotation
        JOINT rShldr
        {
          OFFSET -8.77824 -1.95073 1.46304
          CHANNELS 3 Zrotation Xrotation Yrotation
          JOINT rForeArm
          {
            OFFSET -28.1742 -1.7115 0.48768
            CHANNELS 3 Zrotation Xrotation Yrotation
            JOINT rHand
            {
              OFFSET -22.5879 0.773209 7.07136
              CHANNELS 3 Zrotation Xrotation Yrotation
              JOINT rThumb1
              {
                OFFSET -1.2192 -0.487915 3.41376
                CHANNELS 3 Zrotation Xrotation Yrotation
                JOINT rThumb2
                {
                  OFFSET -3.37035 -0.52449 3.41376
                  CHANNELS 3 Zrotation Xrotation Yrotation
                  End Site
                  {
                    OFFSET -1.78271 -1.18214 1.43049
                  }
                }
              }
              JOINT rIndex1
              {
                OFFSET -7.75947 0.938293 5.60832
                CHANNELS 3 Zrotation Xrotation Yrotation
                JOINT rIndex2
                {
                  OFFSET -2.54057 -0.884171 1.56538
                  CHANNELS 3 Zrotation Xrotation Yrotation
                  End Site
                  {
                    OFFSET -1.62519 -0.234802 1.16502
                  }
                }
              }
              JOINT rMid1
              {
                OFFSET -8.24714 1.18213 3.41376
                CHANNELS 3 Zrotation Xrotation Yrotation
                JOINT rMid2
                {
                  OFFSET -3.10165 -0.590103 1.0647
                  CHANNELS 3 Zrotation Xrotation Yrotation
                  End Site
                  {
                    OFFSET -2.48547 -0.328903 0.83742
                  }
                }
              }
              JOINT rRing1
              {
                OFFSET -8.82822 0.546677 1.51678
                CHANNELS 3 Zrotation Xrotation Yrotation
                JOINT rRing2
                {
                  OFFSET -2.60934 -0.819778 -0.0198488
                  CHANNELS 3 Zrotation Xrotation Yrotation
                  End Site
                  {
                    OFFSET -2.33842 -0.294052 0.168128
                  }
                }
              }
              JOINT rPinky1
              {
                OFFSET -8.27202 -0.0477905 -0.4584
                CHANNELS 3 Zrotation Xrotation Yrotation
                JOINT rPinky2
                {
                  OFFSET -1.82734 -0.647385 -0.700984
                  CHANNELS 3 Zrotation Xrotation Yrotation
                  End Site
                  {
                    OFFSET -1.69225 -0.51767 -0.607171
                  }
                }
              }
            }
          }
        }
      }
      JOINT lCollar
      {
        OFFSET 2.68224 19.2634 -4.8768
        CHANNELS 3 Zrotation Xrotation Yrotation
        JOINT lShldr
        {
          OFFSET 8.77824 -1.95073 1.46304
          CHANNELS 3 Zrotation Xrotation Yrotation
          JOINT lForeArm
          {
            OFFSET 28.1742 -1.7115 0.48768
            CHANNELS 3 Zrotation Xrotation Yrotation
            JOINT lHand
            {
              OFFSET 22.5879 0.773209 7.07136
              CHANNELS 3 Zrotation Xrotation Yrotation
              JOINT lThumb1
              {
                OFFSET 1.2192 -0.487915 3.41376
                CHANNELS 3 Zrotation Xrotation Yrotation
                JOINT lThumb2
                {
                  OFFSET 3.37035 -0.52449 3.41376
                  CHANNELS 3 Zrotation Xrotation Yrotation
                  End Site
                  {
                    OFFSET 1.78271 -1.18214 1.43049
                  }
                }
              }
              JOINT lIndex1
              {
                OFFSET 7.75947 0.938293 5.60832
                CHANNELS 3 Zrotation Xrotation Yrotation
                JOINT lIndex2
                {
                  OFFSET 2.54057 -0.884171 1.56538
                  CHANNELS 3 Zrotation Xrotation Yrotation
                  End Site
                  {
                    OFFSET 1.62519 -0.234802 1.16502
                  }
                }
              }
              JOINT lMid1
              {
                OFFSET 8.24714 1.18213 3.41376
                CHANNELS 3 Zrotation Xrotation Yrotation
                JOINT lMid2
                {
                  OFFSET 3.10165 -0.590103 1.0647
                  CHANNELS 3 Zrotation Xrotation Yrotation
                  End Site
                  {
                    OFFSET 2.48547 -0.328903 0.83742
                  }
                }
              }
              JOINT lRing1
              {
                OFFSET 8.82822 0.546677 1.51678
                CHANNELS 3 Zrotation Xrotation Yrotation
                JOINT lRing2
                {
                  OFFSET 2.60934 -0.819778 -0.0198488
                  CHANNELS 3 Zrotation Xrotation Yrotation
                  End Site
                  {
                    OFFSET 2.33842 -0.294052 0.168128
                  }
                }
              }
              JOINT lPinky1
              {
                OFFSET 8.27202 -0.0477905 -0.4584
                CHANNELS 3 Zrotation Xrotation Yrotation
                JOINT lPinky2
                {
                  OFFSET 1.82734 -0.647385 -0.700984
                  CHANNELS 3 Zrotation Xrotation Yrotation
                  End Site
                  {
                    OFFSET 1.69225 -0.51767 -0.607171
                  }
                }
              }
            }
          }
        }
      }
    }
  }
  JOINT rButtock
  {
    OFFSET -8.77824 4.35084 1.2192
    CHANNELS 3 Zrotation Xrotation Yrotation
    JOINT rThigh
    {
      OFFSET 0 -1.70687 -2.19456
      CHANNELS 3 Zrotation Xrotation Yrotation
      JOINT rShin
      {
        OFFSET 0 -36.8199 0.73152
        CHANNELS 3 Zrotation Xrotation Yrotation
        JOINT rFoot
        {
          OFFSET 0.73152 -45.1104 -5.12064
          CHANNELS 3 Zrotation Xrotation Yrotation
          End Site
          {
            OFFSET -1.1221 -3.69964 12.103
          }
        }
      }
    }
  }
  JOINT lButtock
  {
    OFFSET 8.77824 4.35084 1.2192
    CHANNELS 3 Zrotation Xrotation Yrotation
    JOINT lThigh
    {
      OFFSET 0 -1.70687 -2.19456
      CHANNELS 3 Zrotation Xrotation Yrotation
      JOINT lShin
      {
        OFFSET 0 -36.8199 0.73152
        CHANNELS 3 Zrotation Xrotation Yrotation
        JOINT lFoot
        {
          OFFSET -0.73152 -45.1104 -5.12064
          CHANNELS 3 Zrotation Xrotation Yrotation
          End Site
          {
            OFFSET 1.1221 -3.69964 12.103
          }
        }
      }
    }
  }
}
MOTION
Frames:	6
Frame Time:	0.03333
0.0 0.0 0.0 0.0 0.0 0.0 0.0 0.0 0.0 0.0 0.0 0.0 0.0 0.0 0.0 0.0 0.0 0.0 0.0 0.0 0.0 0.0 0.0 0.0 0.0 0.0 0.0 0.0 0.0 0.0 0.0 0.0 0.0 0.0 0.0 0.0 0.0 0.0 0.0 0.0 0.0 0.0 0.0 0.0 0.0 0.0 0.0 0.0 0.0 0.0 0.0 0.0 0.0 0.0 0.0 0.0 0.0 0.0 0.0 0.0 0.0 0.0 0.0 0.0 0.0 0.0 0.0 0.0 0.0 0.0 0.0 0.0 0.0 0.0 0.0 0.0 0.0 0.0 0.0 0.0 0.0 0.0 0.0 0.0 0.0 0.0 0.0 0.0 0.0 0.0 0.0 0.0 0.0 0.0 0.0 0.0 0.0 0.0 0.0 0.0 0.0 0.0 0.0 0.0 0.0 0.0 0.0 0.0 0.0 0.0 0.0 0.0 0.0 0.0 0.0 0.0 0.0 0.0 0.0 0.0 0.0 0.0 0.0 0.0 0.0 0.0 0.0 0.0 0.0 0.0 0.0 0.0
-27.2046 81.98649999999999 -15.863900000000001 -0.798402 0.018608 4.39527 -2.260106 0.356503 -98.959191 3.67925 0.50741 104.058852 8.788578 21.88143 114.837698 -23.97727 17.626163 -121.323821 -0.005591 0.0 -0.003841 -0.005012 -0.0 0.002254 -0.164824 0.979261 0.218564 -134.425439 86.516717 -149.428952 140.703297 85.493767 153.576307 166.632888 -23.576412 142.894332 -89.135892 38.427154 50.299326 -167.921323 -37.814517 79.24002 10.746612 -19.048045 -4.726307 -11.291517 29.544565 10.206865 23.906795 -61.333291 1.401597 2.987852 0.160767 0.10995 -145.119304 0.267837 -179.212285 -150.511197 -34.478399 -173.194417 12.250872 41.425243 10.279941 -127.842292 -30.911143 -125.404495 159.222663 -48.725211 -170.566091 84.437879 -35.946035 55.130494 -164.16545 -5.781705 161.455874 30.79099 71.087513 -20.079837 12.305385 11.51504 -3.094663 -22.393202 -25.913168 6.112399 1.396317 2.23213 -0.806099 166.609109 -20.402534 -109.629822 160.672299 -6.667989 -143.245199 163.022059 -3.986485 -142.880587 0.022333 -1.806525 0.568081 155.938928 -13.124726 -173.414069 -4.596066 13.360239 -4.153331 23.003477 -40.133004 23.485131 179.978655 75.749708 0.014604 174.669838 53.549596 6.616111 2.115299 40.347998 52.334963 162.35816 -76.080931 71.095271 -179.993444 75.749685 -0.004485 -174.905972 54.410975 -21.274712 -18.340505 45.704733 -131.937111 -99.669555 28.217852 -172.545901
-27.2717 81.9355 -15.8889 -0.61096 0.016307 4.359544 -2.333851 0.491799 -101.892987 3.505896 0.750509 106.77275 9.047383 20.179942 105.699716 -24.649306 13.561738 -112.947715 0.000383 -0.0 -0.000547 0.000383 -0.0 -0.000547 -159.22186 -48.72508 170.56694 -72.088256 -37.376948 -38.776424 -178.527263 -14.088703 -147.138918 -8.514113 29.716329 1.643425 51.059987 -41.203772 12.856872 -29.03049 16.338577 -1.045639 -10.571946 15.013082 6.865735 -1.683916 15.257546 3.140798 -160.097657 -4.901027 142.969704 -130.482426 50.784812 119.462413 -145.11919 0.226165 -179.200455 12.114354 44.8006 -3.848038 -26.567012 -38.85948 -25.607749 -159.256279 55.73749 -149.53287 159.220804 -48.380776 -170.492283 52.243939 -6.572252 40.085563 -18.659594 -0.438151 56.455968 -162.219311 -21.449379 -145.466467 67.034608 37.762373 -34.643972 136.913809 -28.48473 -86.077503 -2.325716 -3.867738 1.260234 79.280573 48.123797 -62.251537 36.036821 51.722937 -29.832351 163.834891 -7.022039 -143.47519 69.298114 72.94537 -87.017897 73.315714 -82.545519 90.413592 146.224401 15.4706 142.747899 -1.159626 -2.661389 2.842034 179.980055 75.748873 0.013646 174.465343 53.324126 4.378187 -15.68491 47.05092 -96.76564 30.027716 62.01575 73.577831 179.997071 75.749994 0.003022 -175.798348 54.435873 0.0 5.432095 48.716483 -170.306931 -15.2054 28.381624 172.439076
-27.4399 81.8403 -15.9409 -0.423542 -0.169033 4.309179 -2.40221 0.657012 -105.287619 3.3496 1.03007 110.120374 8.974185 20.330366 105.520139 -25.19518 13.532574 -112.642721 0.002279 -0.0 -0.00147 -0.003423 0.0 -0.000914 -151.981379 14.727387 157.380837 99.829354 -40.852534 139.253105 -173.707462 52.936579 108.037449 164.108334 -29.433395 141.422932 -90.495911 38.312622 51.260954 82.520087 -49.642524 35.320778 23.269725 -41.070202 -5.687856 125.842817 -63.407463 64.637078 -160.673553 -6.667767 143.245234 -88.647849 63.699374 80.363142 -145.119544 0.267416 -179.213139 -148.139113 -43.032252 -170.605957 10.273068 33.656926 8.863083 -130.781033 -26.969017 -128.327627 9.651382 34.836243 -11.199023 -85.461511 -7.502999 -37.716412 -85.790037 -44.743431 -62.641057 175.384329 44.745163 -150.595994 0.544762 0.535861 -0.086197 127.894421 -23.101108 -113.622068 0.327925 0.529992 -0.185038 -2.317671 12.494064 -2.295514 -0.540381 -1.590152 0.293938 -91.949961 -78.578663 -62.956607 74.84016 72.961068 -92.82794 159.83262 -0.790626 -176.413394 152.20035 37.331115 147.579953 -11.446715 28.251603 -4.448555 -0.000909 0.001001 0.001168 -2.763984 -24.499908 -130.21451 -31.998086 -27.940272 143.913831 109.830027 -50.679891 12.752127 -179.991929 75.750342 -0.005522 -175.851418 52.136284 -180.0 -0.916729 -49.060753 44.62974 90.43798 -20.074688 165.865217
-27.777400000000004 81.68769999999999 -16.1379 -0.018921 -0.279704 4.314928 -2.790488 0.979826 -109.332698 3.162602 1.387423 114.098854 -5.71387 10.098466 -12.895619 12.019088 -15.635785 5.372647 -0.001601 0.0 -0.000627 0.004099 -0.0 -0.001207 4.2393 -44.742747 -8.647899 87.16892 33.43408 -52.613817 173.683378 4.400591 110.741486 169.220455 -16.751685 144.198154 -166.631788 -4.304612 89.771823 173.361457 -22.236324 93.49775 19.569005 -35.040181 -5.98688 20.63933 -8.228741 -2.888783 -14.093906 30.98309 10.181545 -85.853647 64.214093 77.819396 -0.022066 -1.725904 -0.543393 -155.686169 -7.870622 172.803357 10.62493 35.012293 9.122138 -138.357742 -13.839675 -135.287701 -0.16308 -0.990121 0.217859 -76.863401 23.067247 -4.720238 -174.149107 3.36978 -120.766633 -158.331974 -29.516923 -142.605313 -102.158574 -51.172302 -46.988596 22.730428 -26.426972 22.466678 2.686303 4.226756 -1.583679 175.629292 -31.356063 -107.361435 160.673992 -6.667873 -143.244559 7.499196 26.111174 -6.448002 69.840654 -72.122302 86.714864 150.606307 -15.257847 -178.260756 145.173339 12.067299 141.823588 155.708082 37.137143 146.002472 179.99941 75.749688 0.000404 174.279905 49.906719 -180.0 7.540116 -53.934317 -20.83627 -38.713781 13.464794 -155.25343 -179.999472 75.749688 -0.000466 -176.646501 51.914527 160.897948 3.162167 -41.986491 -123.841685 -107.22856 12.35313 4.953929
-28.372500000000002 81.5023 -16.3039 0.636271 -0.541409 4.270717 -8.132245 1.836687 102.259986 -4.759354 -4.115915 -97.729473 -11.583186 22.218733 -93.904754 30.499881 15.382041 82.252605 0.004479 0.0 0.005567 -0.001831 -0.0 4.7e-05 -13.880053 42.645013 15.712776 -76.826137 24.516651 137.032528 88.688324 39.901584 -119.932531 -169.619321 42.945067 142.40193 116.309403 -50.010399 56.954489 -12.141137 -79.299605 -38.703174 -19.170795 24.114339 13.381266 10.454393 -2.61531 -1.340442 0.541413 -1.590004 -0.293679 -163.2611 -4.708723 143.347119 -0.014791 -1.323442 -0.413984 -148.078629 -76.781628 -171.055097 -149.123036 25.57239 -145.198469 -148.509755 13.732705 -142.189572 -1.927519 -13.525018 2.779867 96.160666 -4.279966 173.306499 -97.391601 47.689295 117.843859 178.134591 38.228303 -151.657725 -88.928718 -50.831423 -37.599185 15.645788 -43.213866 30.245944 0.327593 0.529736 -0.187218 86.487589 47.214884 -67.7304 39.28858 53.366244 -32.877758 -16.043641 -37.040867 0.743284 72.134736 72.973964 -89.990057 158.479271 -30.413515 179.471001 77.072431 -51.58335 75.529771 -51.039854 82.817137 12.761689 -0.000844 -0.000261 0.001085 -2.903407 -25.780779 -107.387789 -53.654109 -15.287616 -107.829789 -159.785635 4.099649 174.922495 0.003323 0.000306 0.001661 2.378347 -23.903213 -177.243687 2.663801 -47.306065 68.632754 21.038435 10.856649 115.586939
